<svg xmlns="http://www.w3.org/2000/svg" xmlns:xlink="http://www.w3.org/1999/xlink" width="270" height="397" viewBox="0 0 270 397"><defs><path id="amxwa" d="M230.23 523.43l-31.02-97.24c-.38.71-6.51 37.47-8.85 52.13-2.8 17.38-5.75 34.72-8.62 52.18l-27.01.91c5-44.3 9.99-88.6 14.97-132.91l54.64-1.17c9.53 32.7 19.08 65.42 28.67 98.17l67.7.53c.37 7.57.72 15.1.96 22.66-.23.06-.47.1-.71.13l-22.53 1.46c-8.2.55-16.47 1.05-24.63 1.65a563 563 0 0 1-31.9 1.31l-10.66.2c-.35.02-.62-.01-1-.01z"/><path id="amxwb" d="M321.04 324.07h-86.7c-.24-.91-.3-33.52 0-35.02h5.88c.8 0 1.59 0 2.38.1l10.52.29c3.93.1 7.87.24 11.82.29h7.46l14.64.15h.77c.73-8 1.34-16 2.03-24 .7-8 1.32-16.05 1.98-24.06.66-8 1.32-15.97 2-23.96l2-24.07h32.94c-2.58 43.38-5.16 86.8-7.72 130.28zm-237.6 0c-2.57-43.47-5.15-86.9-7.75-130.28h32.94l2.03 24.07 1.98 23.96c.65 8.01 1.31 16.05 2 24.06.67 8 1.27 16 2.02 24h.77l14.64-.15h7.45c3.95-.05 7.88-.19 11.84-.3l10.52-.29c.78-.09 1.57-.09 2.36-.09h5.9c.3 1.5.25 34.1 0 35.02h-86.7zm259.08 173.5c.13 3.65.24 7.2.36 10.96l-9.65.31c.1.24.2.48.33.7a14.38 14.38 0 0 1 1.98 4.1c.59 1.82 1.5 3.65 2.22 5.47.97 2.58 2.54 4.89 3.3 7.56.74 2.66 1.53 5.06 2.26 7.6a26.3 26.3 0 0 1 .97 8.08 3.25 3.25 0 0 1-.97 2.27 4.64 4.64 0 0 1-3.27 1.53h-1.65a3.3 3.3 0 0 1-3.55-1.93c-1.01-1.83-1.83-3.79-2.77-5.7a24.9 24.9 0 0 1-1.32-3.34 47.7 47.7 0 0 0-2.56-6.25c-.59-1.44-1.1-2.92-1.66-4.37-.57-1.44-1.16-2.98-1.83-4.42-.68-1.44-1.2-2.56-1.84-3.84a1.37 1.37 0 0 0-.4-.62c-.8-.44-.86-1.15-.9-1.96-.13-4.71-.29-9.43-.45-14.17l-.1-1.3zm-164.42 32.3l.71 21.35-10.88.37-.33-9.61c-.24.08-.46.18-.68.3a14.26 14.26 0 0 1-4.12 1.98c-1.82.6-3.65 1.52-5.48 2.21-2.58.99-4.89 2.54-7.54 3.31-2.65.77-5.09 1.52-7.63 2.25a26.79 26.79 0 0 1-8.09.99 3.35 3.35 0 0 1-2.25-.97 4.62 4.62 0 0 1-1.57-3.3c.03-.56.03-1.1 0-1.66a3.31 3.31 0 0 1 1.96-3.56c1.83-.99 3.76-1.83 5.69-2.74 1.07-.5 2.18-.9 3.33-1.19a54.77 54.77 0 0 0 6.25-2.56c1.43-.6 2.91-1.11 4.38-1.68a74 74 0 0 0 4.42-1.83c1.29-.59 2.56-1.2 3.83-1.82.24-.1.46-.24.64-.43.44-.8 1.15-.86 1.94-.9 4.73-.12 9.45-.28 14.18-.45l1.24-.05z"/><path id="amxwc" d="M170.35 274.76h13.05c.2-4.3.36-8.57.56-12.79h-.21l-.65.53c-3.18 2.96-6.38 5.9-9.53 8.88-1.04.99-1.96 2.05-2.93 3.1l-.29.21v.07z"/><path id="amxwd" d="M217.09 282.02l-2.7-1.65a36.4 36.4 0 0 1-4.17-3.3 18.12 18.12 0 0 1-1.93-2.44 11.62 11.62 0 0 1-2.05-6.5c-.16-2.89.4-5.77 1.64-8.38a32.23 32.23 0 0 1 1.83-3.03c-.18.03-.37.08-.54.15-1.17.44-2.41.66-3.66.67-1.26.15-2.54.09-3.77-.18-1.87-.33-3.7-.82-5.5-1.44a7.97 7.97 0 0 0-1.71-.46c-.4-.06-.77-.22-1.08-.46-.59-.44-1.2-.85-1.83-1.22a9.4 9.4 0 0 1-4.01-5l-.15-.12c-.18.2-.36.4-.53.62a20.53 20.53 0 0 0-3.8 8.7c-.5 2.53-.78 5.1-.85 7.68a43.56 43.56 0 0 0 2.5 15.1c.72 2.1 1.6 4.14 2.63 6.12.6 1.15 1.33 2.23 1.96 3.34.24.46.74.73 1.26.68h21.1c.48.07.96-.2 1.15-.64 1.35-2.72 2.76-5.45 4.2-8.24z"/><path id="amxwe" d="M214.7 256.4a8.88 8.88 0 0 0-.83-1.26c-1.21-1.25-2.42-2.5-3.66-3.66a18.3 18.3 0 0 0-3.8-2.56 20.8 20.8 0 0 0-2.9-1.5 26.63 26.63 0 0 0-6.68-1.62c-2.7-.3-5.44.17-7.89 1.37-.7.33-1.35.74-2.05 1.08a.84.84 0 0 0-.5 1.24 8 8 0 0 0 1.95 2.85 16.74 16.74 0 0 0 4.65 3.16c2.47.84 4.92 1.83 7.45 2.45 2.7.8 5.56.9 8.3.24 1.72-.35 3.41-.81 5.07-1.37l.9-.42z"/><path id="amxwf" d="M213.78 254.07l-3.66 1.94a10.11 10.11 0 0 0-3.55 3.23 13.42 13.42 0 0 0-2.42 6.54 12.9 12.9 0 0 0 .84 6.75 14.2 14.2 0 0 0 4.81 5.83c1.36 1 2.73 1.96 4.16 2.87.77.43 1.57.83 2.4 1.17.29-.64.55-1.29.76-1.96.39-1.53.77-3.07 1.07-4.6.18-1.07.29-2.15.34-3.24.13-1.1.17-2.23.13-3.34 0-1.97-.17-3.93-.51-5.87a25.45 25.45 0 0 0-3.92-8.8l-.45-.52z"/><path id="amxwg" d="M196.12 262.74a5.1 5.1 0 0 0-.79-.62 42.71 42.71 0 0 0-3.86-1.98 9.84 9.84 0 0 0-4.57-.76 6.7 6.7 0 0 0-2.38.67 2.8 2.8 0 0 0-1.39 2.41c0 1.43.86 1.92 1.92 2.22 3.4.83 6.99.6 10.27-.64.21-.1.39-.25.5-.46.13-.27.24-.55.3-.84z"/><path id="amxwh" d="M188.04 259.42h.52c.13 0 .29-.09.38.11.1.2.1 0 .13 0 .4.04.74.28.9.64.2.24.35.53.42.84v.7a5.68 5.68 0 0 1-.37 2.45c-.12.28-.27.55-.44.8a.8.8 0 0 1-.66.35c-.4.04-.81.04-1.22 0-.39.05-.78-.08-1.06-.35 0 0-.19-.1-.26-.18-.42-.4-.63-.96-.56-1.54v-.93a4.7 4.7 0 0 1 .36-1.97c.1-.19.22-.35.36-.5.24-.28.59-.45.96-.47.18.03.36.05.54.05zm5.18 17.83h-9.53c0 .5 0 .96.13 1.47h6.8c-.14.28-.18.52-.3.6-1 .87-2.1 1.65-3.26 2.31-.6.22-1.21.4-1.83.55.18.47.4.97.62 1.5a5.5 5.5 0 0 0 3.97-1.35c.28-.28.59-.52.92-.74a5.8 5.8 0 0 0 2.28-2.6c.15-.57.22-1.16.2-1.74z"/><path id="amxwi" d="M305.9 186.67c.03-.27.03-.54 0-.8-.47-2.71-1-5.4-1.44-8.1l-1.39-8.81v-.37c.55-.7.22-1.51.3-2.26.2-1.96.27-3.93.47-5.89.11-1.13.37-2.27.59-3.53h2.25c.66 7.51 1.3 14.92 1.83 22.36h.27c.17-2.44 0-4.88.11-7.31.11-2.44 0-4.92 0-7.32v-7.62l2.8-.1c-.4 7.57-.4 15.16 0 22.73h1.32l.71-22.75 3.66-.1c.26 2.64-.24 5.14-.2 7.66.04 2.52 0 5.01 0 7.5v7.75h2.44v-3.93a28.9 28.9 0 0 0 0-4.72 31.42 31.42 0 0 1 0-6.69c.14-2.52.5-5.05.8-7.64h3.51c.58 1.13.86 2.39.85 3.65.3 3.6.36 7.2.2 10.8-.24 4.14-.48 8.27-.75 12.42-.14 2.53-.34 5.05-.6 7.57-.17 1.51-.52 3.03-.81 4.62l-19.84.22c-.42-1.37-.84-2.67-1.24-4-1.47-4.76-2.91-9.5-4.34-14.23a8.23 8.23 0 0 1-.26-3.89c.19-1.02 1.4-2.12 2.35-1.83.62.25 1.16.67 1.55 1.21a11.75 11.75 0 0 1 2.56 5.48c.48 2.33.84 4.67 1.25 7.02.09.42.03 1.08 1.06.9z"/><path id="amxwj" d="M241.46 288.91H161.2v112.06h70.98c3.1-37.36 6.2-74.71 9.28-112.06z"/><path id="amxwk" d="M197.37 336.9v24.7h-21.02z"/><path id="amxwl" d="M197.37 328c0 5.67-4.72 10.26-10.54 10.26A10.35 10.35 0 0 1 176.35 328z"/><path id="amxwm" d="M200.86 361.6c0-5.66 4.72-10.25 10.54-10.25 5.82 0 10.54 4.59 10.54 10.26z"/><path id="amxwn" d="M200.86 352.7V328h21.02z"/><path id="amxwo" d="M99.52 191.11a5.7 5.7 0 0 1 0-.8c.5-2.71 1-5.4 1.47-8.1.45-2.7.93-5.87 1.39-8.8v-.38c-.55-.7-.22-1.51-.3-2.26-.2-1.96-.27-3.93-.45-5.89-.11-1.15-.37-2.26-.59-3.53h-2.25l-1.94 22.34h-.26c-.16-2.43 0-4.88-.1-7.31-.11-2.43 0-4.92 0-7.31v-7.62l-2.84-.19c.4 7.58.4 15.17 0 22.74h-1.32l-.71-22.75-3.66-.11c-.26 2.65.22 5.15.18 7.67-.04 2.52 0 5 0 7.5v7.75h-2.43v-3.93c-.11-1.57-.11-3.15 0-4.72.24-2.22.24-4.47 0-6.69-.17-2.52-.53-5.05-.83-7.64h-3.51a8.09 8.09 0 0 0-.84 3.66 88.38 88.38 0 0 0-.18 10.78c.23 4.13.47 8.27.73 12.43.16 2.52.35 5.04.6 7.57.17 1.51.53 3.01.82 4.62l19.82.22c.42-1.37.86-2.69 1.27-4l4.33-14.22c.39-1.26.48-2.6.26-3.9-.19-1.02-1.4-2.12-2.36-1.82-.62.25-1.16.67-1.56 1.2a11.91 11.91 0 0 0-2.54 5.48c-.5 2.34-.84 4.68-1.25 7.02-.07.51-.01 1.16-.95 1z"/></defs><g><g transform="matrix(-1 0 0 1 345 -156)"><g><use fill="#f88d2b" xlink:href="#amxwa"/></g><g><use fill="#00303c" xlink:href="#amxwb"/></g><g><use fill="#efb8a9" xlink:href="#amxwc"/></g><g><use fill="#efb8a9" xlink:href="#amxwd"/></g><g><use fill="#00303c" xlink:href="#amxwe"/></g><g><use fill="#00303c" xlink:href="#amxwf"/></g><g><use fill="#fff" xlink:href="#amxwg"/></g><g><use fill="#00303c" xlink:href="#amxwh"/></g><g><use fill="#efb8a9" xlink:href="#amxwi"/></g><g><use fill="#00303c" xlink:href="#amxwj"/></g><g transform="matrix(-1 0 0 1 398 0)"><g><g><use fill="#fff" xlink:href="#amxwk"/></g><g><use fill="#fff" xlink:href="#amxwl"/></g><g><use fill="#fff" xlink:href="#amxwm"/></g><g><use fill="#fff" xlink:href="#amxwn"/></g></g></g><g><use fill="#efb8a9" xlink:href="#amxwo"/></g></g></g></svg>