<svg xmlns="http://www.w3.org/2000/svg" xmlns:xlink="http://www.w3.org/1999/xlink" width="237" height="355" viewBox="0 0 237 355"><defs><path id="5jkka" d="M249.52 258.61l-5.35-.2-19.8-.45c-5.86-.13-11.7-.3-17.56-.44l-17.34-.44-18.01-.46c-3.65-.1-7.12-.22-10.66-.33h-3.23a8.7 8.7 0 0 0-.17 1.57c.15 2.22.31 4.45.5 6.66.36 4.83.74 9.64 1.09 14.45.36 5.1.71 10.23 1.08 15.34.36 5.1.78 10.07 1.16 15.1.39 5.04.7 9.94 1.05 14.9.34 4.96.78 9.91 1.15 14.89l1 14c.18 2.52.35 5.02.55 7.55.04.32.12.64.24.95.42.1.84.16 1.27.2h76.38c.16-.44.29-.9.37-1.35.33-5.64.64-11.27.98-16.9.51-8.24 1.06-16.47 1.6-24.68.2-3.26.34-6.54.56-9.8.38-5.48.82-11.1 1.2-16.66.24-3.25.46-6.51.64-9.78.35-6.46.66-12.81.99-19.36.07-1.5.18-2.98.3-4.76z"/><path id="5jkkb" d="M202.37 309.9v24.7h-21.02z"/><path id="5jkkc" d="M202.37 301c0 5.67-4.72 10.26-10.54 10.26A10.35 10.35 0 0 1 181.35 301z"/><path id="5jkkd" d="M205.86 334.6c0-5.66 4.72-10.25 10.54-10.25 5.82 0 10.54 4.59 10.54 10.26z"/><path id="5jkke" d="M205.86 325.7V301h21.02z"/><path id="5jkkf" d="M251.54 551.05c1.44 3.97 2.28 7.65 3.53 11.3 1.76-.14 3.5-.5 5.18-1.06 1.74-.35 3.44-.84 5.24-1.3.04-.37.04-.74 0-1.11l-3.48-16.76c0-.22-.15-.42-.26-.75-.42.01-.84.05-1.26.1l-12.12 2.75c-.87.2-1.65.68-2.2 1.38-5.82 6.71-11.68 13.4-17.5 20.12-.45.5-.82 1.05-1.1 1.65a2.36 2.36 0 0 0 2.52 3.27c.73-.09 1.45-.3 2.11-.6a38.57 38.57 0 0 0 8.97-5.75c3.28-3 6.13-6.44 8.48-10.22.54-.86 1.02-1.74 1.9-3.02zm-134.7 1.24c-.98 4.12-2.32 7.65-3.29 11.38 1.56.85 3.2 1.52 4.9 2 1.64.65 3.34 1.18 5.11 1.82a6 6 0 0 0 .59-.95c2.11-5.3 4.22-10.6 6.31-15.91 0-.2.11-.44.2-.75a9.25 9.25 0 0 0-1.11-.63c-3.87-1.46-7.76-2.9-11.63-4.39-.83-.29-1.74-.29-2.58 0L89.67 552c-.64.17-1.25.43-1.82.77a2.34 2.34 0 0 0 .29 4.11c.67.33 1.38.56 2.12.68 3.54.53 7.13.55 10.68.07a47.94 47.94 0 0 0 12.78-3.84c.8-.44 1.82-.88 3.12-1.5z"/><path id="5jkkg" d="M224.37 240.94l-2.92-2.5a19.91 19.91 0 0 1-4.73-5.7 8.47 8.47 0 0 1-.77-2.92c-.21-1.58-.27-3.15-.42-4.87a9.44 9.44 0 0 1-7.58 2.54 27.93 27.93 0 0 1-5.78-1.44 35.5 35.5 0 0 1-4.06-2.1 13.37 13.37 0 0 1-3.06-2.57c-.2-.18-.44-.34-.66-.51-.51 1.4-.99 2.76-1.48 4.08a12.46 12.46 0 0 1-2.74 4.15 4.52 4.52 0 0 1-3.01 1.47 1.18 1.18 0 0 0-.37 0c-1.17.4-2.43.49-3.65.25-.29-.02-.58-.02-.88 0-.48 1.58-.8 3.2-.98 4.83-.22 3.21-.11 6.44.3 9.62a36.62 36.62 0 0 0 4.78 13.24c.24.54.77.87 1.35.85 8.92 0 17.85.07 26.8.22.53.03 1.05-.2 1.4-.6a29.78 29.78 0 0 0 7.48-13.81c.3-1.43.63-2.8.98-4.23z"/><path id="5jkkh" d="M217.26 222.97a21.39 21.39 0 0 0-3.42-2.74 30.65 30.65 0 0 0-10.95-3.28 20.21 20.21 0 0 0-10.06 1.43.37.37 0 0 0-.15.15 10.59 10.59 0 0 0 4.42 5.67 21.49 21.49 0 0 0 11.26 4.14 8.22 8.22 0 0 0 3.99-.88 10.2 10.2 0 0 0 4.9-4.49z"/><path id="5jkki" d="M194.07 218.24c-.64.3-1.13.44-1.55.7a29.9 29.9 0 0 0-7.3 6.14 15.38 15.38 0 0 0-3.53 7.32v.7c1.83-.15 3.54-.17 5.24-.45 1-.2 1.93-.72 2.63-1.48a15.16 15.16 0 0 0 4.5-8.41c.1-.3.14-.62.16-.93.03-1.1-.06-2.22-.15-3.59zm30.62 23.73a39.24 39.24 0 0 0-1.17-8.84 22.49 22.49 0 0 0-2.8-6.33 20.67 20.67 0 0 0-5.01-4.88c-.56.7-1.01 1.46-1.36 2.28-1.2 3.48-.78 7.31 1.14 10.45a11.37 11.37 0 0 0 3.2 3.35c1.93 1.32 3.77 2.7 5.65 4.08l.35-.11z"/><path id="5jkkj" d="M193.31 248.8h2.03a8.27 8.27 0 0 0 2.37 3.81 5.58 5.58 0 0 0 2.76-1.64c.32-.42.59-.87.8-1.34.18-.65.81-1.07 1.48-.99h1.83c-.03.4-.1.78-.22 1.15-.42.88-.9 1.72-1.4 2.57-.21.3-.46.56-.74.8a7.02 7.02 0 0 1-5.91 1.56 1.52 1.52 0 0 1-.9-.6 7.45 7.45 0 0 1-2.1-5.31zm.75-2.8a2.2 2.2 0 0 1 0-1.91l6.41-10.58 2 .79c-1 3.23-3.11 5.76-4.87 8.72 2.54.17 4.93 0 7.3 0 .35.8.45 1.66.3 2.5-3.7.32-7.42.48-11.14.49z"/><path id="5jkkk" d="M209.84 232a3.01 3.01 0 0 1 3.42 3.09 2.25 2.25 0 0 1-.92 1.4c-.65.56-1.42.95-2.26 1.12a9.77 9.77 0 0 1-4.71.22 2.45 2.45 0 0 1-1.54-.98 3.08 3.08 0 0 1-.53-2.99c.2-.62.7-1.09 1.34-1.26.47-.16.95-.27 1.44-.35 1.26-.25 2.6-.25 3.76-.25z"/><path id="5jkkl" d="M206.14 235.42c0-.16 0-.33-.13-.47-.28-.97-.03-2.01.66-2.75a5.76 5.76 0 0 1 1.31-.42c.64-.07 1.26.25 1.56.82.6.92.97 1.97 1.07 3.06.02.22-.01.44-.1.64-.2.42-.42.81-.68 1.19a2.2 2.2 0 0 1-2.25.42 2.76 2.76 0 0 1-1.28-1.83l-.16-.68v.02z"/><path id="5jkkm" d="M195.9 231.8a3.01 3.01 0 0 1 3.4 3.11 2.32 2.32 0 0 1-.89 1.39c-.65.55-1.43.93-2.26 1.11a9.62 9.62 0 0 1-4.73.22 2.54 2.54 0 0 1-1.53-.98 3.04 3.04 0 0 1-.53-2.97c.2-.62.7-1.1 1.33-1.28.47-.16.96-.28 1.46-.35 1.19-.05 2.45-.16 3.74-.25z"/><path id="5jkkn" d="M192.24 235.66c-.04-.17-.1-.33-.16-.48-.36-.94-.2-2 .44-2.78.09-.1.2-.17.32-.2.3-.13.62-.24.94-.33.63-.13 1.27.15 1.62.7a6.57 6.57 0 0 1 1.32 2.94c.05.22.05.44 0 .66-.17.42-.37.84-.59 1.24a2.2 2.2 0 0 1-2.2.59 2.72 2.72 0 0 1-1.43-1.69l-.26-.65z"/><path id="5jkko" d="M311.38 260.27c-2.66-.12-5.1-.27-7.54-.35l-20.08-.63c-4.08-.13-8.16-.28-12.24-.44l-17.1-.66-7.4-.22h-1.66a14 14 0 0 0-.4 1.83c-.25 5.2-.47 10.39-.68 15.58-.15 3.19-.31 6.37-.42 9.57v3.88c.5.12 1.02.2 1.53.24 6.47.15 12.91.24 19.36.36 3.65 0 7.3.19 10.96.3.33.02.66.07.98.14.09.5.15 1 .18 1.5v9.37c0 6.68 0 13.37.11 20.12l.35 36.77c0 3.2 0 6.39.09 9.6 0 6.69.2 13.36.24 20.11 0 2.9-.17 5.78-.18 8.68v9.78c0 1.03-.19 2.05-.15 3.08.18 5.26.44 10.53.62 15.8.1 2.3.1 4.61.1 6.92 0 5.94 0 11.89.1 17.83 0 4.88.04 9.76.11 14.64 0 1.19.15 2.38.22 3.66.8.36 1.7.53 2.57.5l14 .69 5.98.32h2.4c.42-.65.58-1.44.47-2.2.23-6.08.42-12.17.64-18.3l.63-17.14.7-19.6c.2-5.65.44-11.28.66-16.92.23-6.53.43-13.06.67-19.59.2-5.49.44-11.14.64-16.7.26-6.53.46-13.06.7-19.6.21-5.63.45-11.28.65-16.92.24-6.53.44-13.06.7-19.59.2-5.65.43-11.29.64-16.92.25-6.62.45-13.23.7-19.83 0-1.48.12-2.97.2-4.45 0-.38-.03-.67-.05-1.2z"/><path id="5jkkp" d="M288.34 505.84l2.04.19 1.96.16c.67 0 .93-.16.93-.9v-3.98a64.4 64.4 0 0 0-1.86-13.12 10.4 10.4 0 0 1-.39-2.62c0-1.19-.23-2.4-.36-3.65l1.71.16c.1.46.16.93.19 1.4.11 1.67.35 3.32.7 4.95.36 1.59.54 3.22.8 4.83.25 1.6.45 2.7.6 4.08.29 2.06.38 4.14.29 6.22 0 .33-.15.67.2.93v1.9l3.45.31a4 4 0 0 0 .46-2.5c0-1.28 0-2.56-.17-3.83-.18-1.93-.38-3.9-.7-5.81-.34-1.93-.72-3.43-1.09-5.13-.3-1.42-.8-2.78-1.18-4.17-.23-.96-.4-1.94-.53-2.92l1.59.14c.87 2.62 1.57 5.3 2.08 8.01.3 1.52.66 3.02.88 4.56.21 1.53.4 3.42.58 5.12 0 .77.1 1.56.13 2.34.53.77.16 1.69.27 2.53v1.79l3.83.35c.21-.45.38-.93.5-1.41.38-1.87.6-3.77.66-5.67a28.37 28.37 0 0 0-.43-4.65c-.2-1-.21-2.05-.38-3.07l-2.15-12.99c-.31-1.83-.57-3.8-.9-5.7-.32-1.91-.65-3.5-.98-5.26a5.5 5.5 0 0 0-.17-.53l-19.19-1.61-1.22 2.65a51.78 51.78 0 0 0-2.16 5.99c-.65 2.25-1.35 4.5-1.99 6.77-.34 1.13-.6 2.28-.8 3.45-.32 1.58-.41 3.2-.26 4.81.03.18.08.35.13.51.6 0 1.22.14 1.83.17.2.03.41-.03.58-.15a7.79 7.79 0 0 0 1.65-1.82c.47-.94 1.04-1.83 1.53-2.75.27-.51.51-1.08.84-1.61v.64l-.3 3.55c0 .33-.16.7.2.91v.33c0 1.23-.2 2.47-.23 3.66a59.77 59.77 0 0 0 0 6.77c.15 1.69.35 3.37.51 5.09l4.37.38c.27-1.2.42-2.43.42-3.66-.15-2.69-.28-5.38-.46-8.05-.17-2.1-.44-4.19-.64-6.27a2.72 2.72 0 0 1 0-.86c.26-1.45.3-2.92.15-4.37v-.85l1.66.15c0 .9 0 1.83.09 2.7.1.89 0 2.33 0 3.48 0 1.83.2 3.66.31 5.5.1 1.44.27 2.87.35 4.3.07 1.45 0 2.43.09 3.67.03.6.03 1.22 0 1.83.24.88.1 1.68-.02 2.63z"/><path id="5jkkq" d="M178.01 359.5l-71.63 182.4 29.32 12.92 72.71-171.34-5.88-24.5"/><path id="5jkkr" d="M237.77 360.88l29.77 181.04-28.34 7.13-38.73-190.07"/><path id="5jkks" d="M97.93 251.72c2.64.18 5.09.33 7.52.55l19.94 1.83 12.18 1 17.07 1.36c2.52.2 5.02.44 7.54.68.51 0 1.02.1 1.64.18.11.6.18 1.21.19 1.83-.37 5.18-.77 10.35-1.15 15.55-.22 3.18-.44 6.36-.7 9.55-.1 1.24-.29 2.49-.45 3.84-.53.03-1.05.03-1.57 0-6.41-.64-12.79-1.3-19.27-1.83-3.65-.37-7.3-.68-10.84-1h-1c-.15.47-.27.95-.36 1.44-.41 3.1-.8 6.2-1.18 9.31-.82 6.62-1.63 13.26-2.47 19.9a7829.28 7829.28 0 0 1-5.9 46c-.85 6.64-1.82 13.26-2.59 19.88-.35 2.87-.5 5.76-.82 8.64-.35 3.23-.82 6.45-1.22 9.7-.11 1.01 0 2.06-.22 3.08-.8 5.22-1.66 10.41-2.48 15.61a223.8 223.8 0 0 0-.92 6.84l-2.19 17.7-1.82 14.64c-.15 1.17-.42 2.33-.66 3.55-.85.27-1.74.34-2.61.2l-13.97-1.08c-2.01-.12-4-.21-6-.36-.8 0-1.6-.18-2.36-.28-.34-.7-.42-1.5-.22-2.24.49-6.08 1.02-12.13 1.51-18.3.48-5.7.91-11.4 1.4-17.1.52-6.52 1.07-13.03 1.6-19.54l1.35-16.89 1.62-19.54c.46-5.48.86-11.1 1.32-16.64.53-6.52 1.1-13.05 1.62-19.56.46-5.62.88-11.25 1.34-16.87l1.62-19.55c.46-5.62.88-11.25 1.35-16.89.53-6.58 1.1-13.17 1.64-19.76.13-1.48.22-2.96.33-4.44.02-.16.1-.46.19-.99z"/><path id="5jkkt" d="M91.94 498.28h-4.02c-.68 0-.9-.27-.82-1a63.36 63.36 0 0 1 3.87-16.76c.33-.83.57-1.69.7-2.56.16-1.2.49-2.35.78-3.66h-1.83c-.1.46-.27.91-.35 1.39-.3 1.63-.73 3.24-1.3 4.8-.5 1.54-.89 3.14-1.33 4.71-.43 1.57-.76 2.65-1.07 3.99a34.61 34.61 0 0 0-1.02 6.15c0 .32 0 .7-.31.9-.1 0-.11.28-.13.45 0 .46 0 .91-.11 1.42l-3.47-.1c-.33-.8-.38-1.7-.15-2.53.19-1.26.35-2.54.6-3.77.4-1.83.84-3.82 1.4-5.7.54-1.89 1.1-3.3 1.67-4.96.48-1.37 1.12-2.65 1.68-4 .33-.93.61-1.88.84-2.84H86a58.02 58.02 0 0 0-3.01 7.7c-.5 1.46-1 2.92-1.4 4.42-.4 1.5-.83 3.33-1.2 5.02-.16.77-.27 1.53-.41 2.3-.6.72-.37 1.65-.57 2.47v.68c0 .22 0 .73-.1 1.13l-3.84-.13a6.63 6.63 0 0 1-.33-1.44c-.16-1.9-.16-3.82 0-5.72.21-1.54.54-3.06.98-4.54.33-1 .46-2.03.73-3.02l3.66-12.64c.53-1.83 1-3.66 1.53-5.5.53-1.82 1.08-3.4 1.6-5.1l.22-.49 19.14.57c.28.88.62 1.83.9 2.76.6 2.04 1.08 4.1 1.44 6.2.38 2.33.8 4.65 1.19 6.97.2 1.16.32 2.34.38 3.51a15.7 15.7 0 0 1-.31 4.81c-.05.18-.11.35-.19.52h-1.82a.78.78 0 0 1-.57-.22 7.32 7.32 0 0 1-1.42-2.03c-.35-1-.8-1.94-1.19-2.91-.22-.55-.38-1.13-.66-1.7v.62c0 1.19 0 2.38-.1 3.57 0 .33 0 .71-.33.9a.48.48 0 0 0 0 .3c0 1.25-.11 2.47-.22 3.66a63.26 63.26 0 0 1-.84 6.7c-.35 1.66-.73 3.3-1.12 5l-4.5-.28a14.31 14.31 0 0 1 0-3.66c.45-2.65.89-5.29 1.38-7.92.42-2.07.91-4.12 1.37-6.17a2.6 2.6 0 0 0 0-.86 15.4 15.4 0 0 1 .37-4.37v-.82h-1.68a76.43 76.43 0 0 0-.82 6.13c-.17 1.82-.64 3.65-.96 5.48-.27 1.41-.6 2.82-.87 4.25-.27 1.43-.35 2.4-.51 3.66-.1.6-.17 1.21-.2 1.83.09.67.2 1.4.22 2.43z"/></defs><g><g transform="matrix(-1 0 0 1 312 -216)"><g><use fill="#f88d2b" xlink:href="#5jkka"/></g><g transform="matrix(-1 0 0 1 366 0)"><g><g><use fill="#fff" xlink:href="#5jkkb"/></g><g><use fill="#fff" xlink:href="#5jkkc"/></g><g><use fill="#fff" xlink:href="#5jkkd"/></g><g><use fill="#fff" xlink:href="#5jkke"/></g></g></g><g><use fill="#00303c" xlink:href="#5jkkf"/></g><g><use fill="#efb8a9" xlink:href="#5jkkg"/></g><g><use fill="#00303c" xlink:href="#5jkkh"/></g><g><use fill="#00303c" xlink:href="#5jkki"/></g><g><use fill="#00303c" xlink:href="#5jkkj"/></g><g><use fill="#fff" xlink:href="#5jkkk"/></g><g><use fill="#00303c" xlink:href="#5jkkl"/></g><g><use fill="#fff" xlink:href="#5jkkm"/></g><g><use fill="#00303c" xlink:href="#5jkkn"/></g><g><use fill="#f88d2b" xlink:href="#5jkko"/></g><g><use fill="#efb8a9" xlink:href="#5jkkp"/></g><g><use fill="#00303c" xlink:href="#5jkkq"/></g><g><use fill="#00303c" xlink:href="#5jkkr"/></g><g><use fill="#f88d2b" xlink:href="#5jkks"/></g><g><use fill="#efb8a9" xlink:href="#5jkkt"/></g></g></g></svg>