<svg xmlns="http://www.w3.org/2000/svg" xmlns:xlink="http://www.w3.org/1999/xlink" width="290" height="394" viewBox="0 0 290 394"><defs><path id="y8l5a" d="M172.75 252.6h1.66l10.55.15h17.2c3.5 0 7.02.1 10.54.12 1.97 0 3.94-.09 5.92 0l19.32.17c8.98 0 17.98.1 26.94.17.53 0 1.04 0 1.82.1-6.1 40.12-12.15 80.06-18.25 120.07-22.4 0-44.74 0-67.18-.11-.25-1.2-.38-2.43-.38-3.66 0-1.5-.13-2.98-.24-4.47l-.5-6.33c-.15-1.82-.32-3.56-.45-5.36-.12-1.79-.16-3.42-.27-5.12 0-1.17-.22-2.32-.3-3.5-.14-2.33-.19-4.64-.36-6.98 0-1.25-.3-2.49-.41-3.75v-2.43-.81c-.11-1.57-.22-3.13-.35-4.7 0-.75-.2-1.5-.26-2.27-.22-3.35-.38-6.7-.6-10.04 0-.72-.31-1.41-.36-2.1-.13-1.56 0-3.13-.2-4.69a44.17 44.17 0 0 1-.37-5.49 29.8 29.8 0 0 0-.33-3.33c-.1-1.46-.14-2.92-.2-4.37 0-.59-.2-1.17-.24-1.83-.1-1.83-.14-3.66-.29-5.6-.14-1.93-.44-3.65-.58-5.36-.22-2.41-.35-4.86-.55-7.31-.13-1.7-.33-3.4-.46-5.12-.16-2.16-.27-4.32-.4-6.48l-.44-7.8c-.02-.59-.01-1.18.02-1.77z"/><path id="y8l5b" d="M216.37 296.9v24.7h-21.02z"/><path id="y8l5c" d="M216.37 288c0 5.67-4.72 10.26-10.54 10.26A10.35 10.35 0 0 1 195.35 288z"/><path id="y8l5d" d="M219.86 321.6c0-5.66 4.72-10.25 10.54-10.25 5.82 0 10.54 4.59 10.54 10.26z"/><path id="y8l5e" d="M219.86 312.7V288h21.02z"/><path id="y8l5f" d="M268.65 465.03l-108.96-.18c6.91-31.56 13.79-63.13 20.62-94.71h34.15c11.33 0 22.67 0 34.15.1 6.71 31.62 13.36 63.12 20.04 94.8z"/><path id="y8l5g" d="M83.5 379.27L81.5 233h21.37c.11.9.27 1.83.33 2.74.2 3.8.35 7.58.57 11.39.22 4.07.49 8.17.75 12.27.34 5.49.69 11.09 1.09 16.63.46 6.58.99 13.17 1.48 19.76.4 5.36.77 10.73 1.15 16.11l1.5 19.89c.29 4.11.58 8.21.89 12.33 0 .5.13.98.36 1.4l.84-1.1 30-40.05 15.52-20.75c.93-1.26 1.71-2.65 2.63-3.93.9-1.28 2.1-2.71 3.08-4.1.99-1.39 1.97-2.9 2.92-4.35.95-1.47 1.5-2.56 2.3-3.77.51-.75 1.19-1.34 1.72-2.07.53-.73.87-1.54 1.31-2.29.12-.24.25-.48.4-.71 1.54-1.83 2.5-4.11 4.03-6 .63-.79 1.21-1.6 1.83-2.5.18 2.19.37 4.3.53 6.4.53 6.67 1.02 13.33 1.53 20 .2 2.44.31 4.9.6 7.33.03.8-.28 1.58-.83 2.16l-12.63 18.97a353456.5 353456.5 0 0 0-46.29 69.22 2.63 2.63 0 0 1-2.48 1.37c-10.95 0-21.9 0-32.85-.1H83.5z"/><path id="y8l5h" d="M251.9 574.5c0 4.63 1.09 9.26.58 14.07l-10.64.97-4.5-34.17 20.89-2.38c.72 1.6 1.38 3.11 2.08 4.6a12.27 12.27 0 0 0 4.23 5.13c3.98 2.74 7.95 5.5 11.9 8.27l4.93 3.37a8.16 8.16 0 0 1 2.79 4.26c.49 1.74.55 3.57.2 5.34-.09.33-.3.61-.59.79a10.55 10.55 0 0 1-6.05 2.01c-3.13-.1-6.21-.72-9.13-1.83-5.18-1.72-9.38-5.27-13.74-8.5-.9-.68-1.83-1.4-2.63-2.09l-.33.16zm-70.38 0c0 4.63-1.1 9.26-.59 14.07l10.66.97 4.5-34.17-20.9-2.38c-.72 1.6-1.37 3.11-2.07 4.6a12.54 12.54 0 0 1-4.23 5.1c-4 2.72-7.94 5.49-11.92 8.27a454.56 454.56 0 0 1-4.9 3.36 8.16 8.16 0 0 0-2.8 4.26c-.5 1.74-.56 3.57-.2 5.34.08.33.28.61.56.8a10.65 10.65 0 0 0 6.08 2c3.12-.1 6.2-.71 9.13-1.82 5.18-1.72 9.38-5.27 13.74-8.51.9-.68 1.82-1.4 2.63-2.09l.3.2z"/><path id="y8l5i" d="M354.18 379.27L356.15 233h-21.37c-.1.92-.27 1.83-.32 2.74-.2 3.8-.35 7.58-.57 11.39-.22 4.08-.47 8.17-.75 12.27-.35 5.49-.67 11.09-1.08 16.63-.47 6.58-1 13.17-1.5 19.76l-1.14 16.11c-.5 6.62-.99 13.27-1.5 19.89l-.87 12.33c-.03.49-.15.97-.37 1.4l-.86-1.1-29.98-40.05-15.52-20.75c-.94-1.26-1.73-2.65-2.62-3.93-.9-1.28-2.1-2.71-3.09-4.1a129.2 129.2 0 0 1-2.94-4.35c-.95-1.47-1.47-2.56-2.3-3.77-.49-.73-1.18-1.34-1.7-2.07-.5-.73-.89-1.52-1.33-2.29a5.5 5.5 0 0 0-.4-.71c-1.51-1.83-2.5-4.11-4.03-6a52.82 52.82 0 0 1-1.82-2.5l-.53 6.4-1.54 20c-.18 2.44-.3 4.9-.6 7.33-.01.8.29 1.57.84 2.16l12.66 18.93 46.29 69.22a2.58 2.58 0 0 0 2.48 1.37c10.95 0 21.9 0 32.85-.09l1.64.04z"/><path id="y8l5j" d="M283.52 226.94a.99.99 0 0 1-.44 1.36c-1.66 1.17-3.27 2.39-4.93 3.54-.66.45-1.36.83-2.1 1.12a66.32 66.32 0 0 1-8.1 2.82c-2.48.66-4.98 1.27-7.49 1.83-1.3.2-2.6.33-3.92.38-2.06.17-4.14.38-6.2.42-1.53.02-3.06-.09-4.57-.31a20.6 20.6 0 0 1-5.67-1.65 1.1 1.1 0 0 1-.77-.82c-.45-2.28-.95-4.55-1.46-6.9l3.65-2.4a13.15 13.15 0 0 1 3.32-1.66 47.17 47.17 0 0 1 11.56-2.36c2.51-.22 5.05-.2 7.59-.18 1.22.06 2.44.17 3.65.35 1.27.14 2.55.24 3.81.47 1.44.26 2.86.61 4.25 1.06 2.34.8 4.62 1.83 6.94 2.62l.88.31z"/><path id="y8l5k" d="M200.96 240.45c.28-.18.56-.35.86-.49a27.44 27.44 0 0 0 5.66-3.46 23.06 23.06 0 0 0 3.25-2.74 34.25 34.25 0 0 0 4.01-4.96c1-1.6 1.93-3.26 2.9-4.88 1.13-1.93 2-4 2.61-6.15.19.26.36.53.51.8a42.4 42.4 0 0 0 4.91 7.94 27.87 27.87 0 0 0 5.31 5.36 20.42 20.42 0 0 0 6.96 3.5c.53.13 1.02.35 1.64.56 0 .8 0 1.58-.2 2.31-.24 1.52-.47 3.04-.79 4.54a30.33 30.33 0 0 1-.89 3.29c-.67 1.92-1.35 3.86-2.12 5.75-.42 1.04-1.02 1.97-1.51 2.98-.1.28-.4.46-.7.43h-25.73c-.61.07-1.2-.26-1.46-.82a43.17 43.17 0 0 1-3.23-6.97 11.8 11.8 0 0 0-.55-1.32 28.23 28.23 0 0 1-1.44-5.67z"/><path id="y8l5l" d="M201.12 239.76c0-.6-.11-1.03-.11-1.45 0-1.6-.11-3.24 0-4.83a20.9 20.9 0 0 1 1.5-6.84 24.19 24.19 0 0 1 4.98-7.6 9.86 9.86 0 0 1 4.47-2.57c1.46-.36 2.95-.6 4.45-.73 1.26-.13 2.54-.11 3.82-.15h1.05a9.1 9.1 0 0 1-.76 2.2c-1.08 2.08-2.14 4.17-3.33 6.16-1.18 2-2.22 3.66-3.44 5.25a33 33 0 0 1-5.79 6.04 41.82 41.82 0 0 1-6.84 4.52z"/><path id="y8l5m" d="M220.5 215.61a9.76 9.76 0 0 1 3.52.4c1.87.29 3.7.77 5.48 1.45a17.6 17.6 0 0 1 10.58 13.52c.27 1.5.45 3 .55 4.52 0 .19-.03.38-.09.56a32.55 32.55 0 0 1-3.98-1.53 31.42 31.42 0 0 1-10.95-10 62.23 62.23 0 0 1-4.67-8.04c-.24-.25-.31-.55-.44-.88z"/><path id="y8l5n" d="M216.16 244.6h1.53a6.31 6.31 0 0 0 1.83 2.9 4.1 4.1 0 0 0 2.08-1.27c.24-.3.45-.64.62-.99.22-.51.5-.82 1.11-.75.63.07.79 0 1.3 0 0 .3-.06.59-.16.86-.31.66-.66 1.3-1.04 1.94a5.3 5.3 0 0 1-5.04 1.8c-.27-.07-.5-.22-.68-.44a5.7 5.7 0 0 1-1.55-4.05zm.53-2.15a1.67 1.67 0 0 1 0-1.44l4.85-8 1.5.59a30.2 30.2 0 0 1-3.65 6.6c1.82.11 3.64 0 5.47 0 .25.58.32 1.21.22 1.83-2.77.42-5.54.42-8.39.42z"/><path id="y8l5o" d="M230 230.85a2.26 2.26 0 0 1 2.58 2.34c-.1.43-.33.8-.68 1.07a3.8 3.8 0 0 1-1.71.84 7.28 7.28 0 0 1-3.65.16 1.82 1.82 0 0 1-1.15-.75 2.3 2.3 0 0 1-.42-2.25c.16-.47.54-.82 1.02-.95.36-.12.72-.2 1.1-.26 1.02-.09 1.97-.12 2.92-.2z"/><path id="y8l5p" d="M227.1 233.59v-.37c-.22-.73-.02-1.51.5-2.05a.53.53 0 0 1 .26-.15c.24-.08.48-.14.73-.18.48-.06.95.19 1.17.62a4.87 4.87 0 0 1 .82 2.78c-.15.32-.33.63-.53.92a1.7 1.7 0 0 1-1.7.31c-.5-.3-.84-.8-.96-1.37a5.24 5.24 0 0 0-.13-.51h-.17z"/><path id="y8l5q" d="M219.13 230.85a2.28 2.28 0 0 1 2.6 2.34c-.1.43-.34.8-.7 1.05-.49.42-1.07.71-1.7.86-1.19.35-2.44.4-3.65.16a1.82 1.82 0 0 1-1.15-.75 2.27 2.27 0 0 1-.4-2.25c.15-.47.53-.84 1-.97.36-.12.72-.2 1.1-.26 1.02-.09 2.06-.12 2.9-.18z"/><path id="y8l5r" d="M216.42 233.7a2.68 2.68 0 0 0-.12-.35c-.27-.7-.14-1.5.32-2.1a.71.71 0 0 1 .26-.15c.23-.1.47-.18.71-.25.47-.08.95.12 1.22.51.5.66.84 1.43.99 2.25.05.16.05.32 0 .48-.1.33-.25.65-.44.95a1.7 1.7 0 0 1-1.66.45c-.51-.26-.9-.72-1.08-1.28l-.16-.5h-.04z"/><path id="y8l5s" d="M92.53 196H88.4c-.71 0-.95.26-.9.99 0 1.32.23 2.63.37 3.93a62.53 62.53 0 0 0 3.1 12.82c.33.82.54 1.67.64 2.55.15 1.19.46 2.36.72 3.65H90.5c-.13-.45-.23-.9-.31-1.37a30.27 30.27 0 0 0-1.19-4.8c-.47-1.56-.84-3.15-1.24-4.73-.4-1.57-.7-2.65-.98-3.98a34.69 34.69 0 0 1-.88-6.13c0-.33.1-.7-.27-.92-.37-.22-.11-.29-.11-.46 0-.45 0-.91-.1-1.4h-3.64a3.8 3.8 0 0 0-.1 2.47c.15 1.26.28 2.52.52 3.76.34 1.83.75 3.81 1.24 5.7.5 1.88 1.06 3.3 1.59 4.97.53 1.66 1.05 2.67 1.6 4.03.31.93.58 1.88.78 2.85H85.8a55.64 55.64 0 0 1-2.86-7.76c-.46-1.46-.95-2.93-1.34-4.43-.38-1.5-.73-3.33-1.04-5-.16-.78-.25-1.54-.36-2.31a.2.2 0 0 0 0-.1c-.62-.7-.33-1.62-.51-2.45v-1.79H75.6a6.6 6.6 0 0 0-.38 1.43c-.23 1.88-.29 3.79-.17 5.69.17 1.53.46 3.04.86 4.53.3 1 .42 2.02.67 3 1.12 4.23 2.27 8.46 3.4 12.68.49 1.83.93 3.66 1.44 5.5.51 1.82.99 3.4 1.48 5.1l.22.5h19.7c.34-.87.72-1.82 1.03-2.72.68-2 1.24-4.05 1.66-6.13.48-2.28.99-4.57 1.44-6.86.25-1.15.41-2.32.5-3.5.2-1.59.15-3.2-.15-4.78 0-.17-.13-.34-.18-.52h-1.94a.82.82 0 0 0-.58.2 7.86 7.86 0 0 0-1.53 1.98c-.39.97-.9 1.83-1.32 2.85-.24.55-.42 1.12-.71 1.67v-4.17c0-.33.1-.7-.3-.9 0 0-.1-.2-.1-.3 0-1.24 0-2.46-.11-3.65-.1-2.23-.31-4.46-.66-6.66-.3-1.66-.66-3.31-.98-5h-4.57a14.1 14.1 0 0 0 0 3.66c.39 2.64.75 5.3 1.2 7.93.36 2.06.81 4.1 1.21 6.14.05.29.05.58 0 .86-.14 1.46-.06 2.93.24 4.36v.82h-1.82c-.11-.88-.26-1.83-.35-2.69a87.82 87.82 0 0 1-.31-3.42c-.11-1.83-.55-3.66-.82-5.49-.24-1.42-.53-2.83-.77-4.24-.24-1.41-.3-2.4-.42-3.66 0-.62-.15-1.26-.16-1.83-.02-.57.16-1.5.2-2.47zm254.65 1h4.14c.7 0 .93.26.87.97a60.3 60.3 0 0 1-3.47 16.77 9.98 9.98 0 0 0-.63 2.55c-.15 1.19-.46 2.36-.71 3.66h1.82c.1-.46.26-.92.33-1.4.27-1.62.66-3.23 1.17-4.8.49-1.54.84-3.13 1.24-4.7.4-1.58.71-2.66.98-4 .49-2.01.78-4.06.88-6.12 0-.33-.1-.7.3-.91 0 0 0-.3.1-.46v-1.43h3.65c.37.8.46 1.68.24 2.53-.17 1.26-.28 2.52-.51 3.75a100.4 100.4 0 0 1-1.26 5.7c-.5 1.89-1.04 3.31-1.57 4.98-.46 1.37-1.08 2.67-1.6 4-.33.94-.6 1.89-.81 2.86h1.64a54.2 54.2 0 0 0 2.85-7.74c.45-1.48.95-2.93 1.33-4.43.38-1.5.73-3.34 1.06-5.02.14-.75.24-1.52.36-2.3v-.08c.63-.72.35-1.65.52-2.45a2.8 2.8 0 0 0 0-.68v-1.12h3.98c.16.47.28.94.36 1.43.2 1.84.25 3.7.13 5.54a25.54 25.54 0 0 1-.86 4.56c-.3.98-.42 2-.68 3-1.1 4.22-2.26 8.44-3.4 12.67-.48 1.83-.92 3.66-1.41 5.58-.5 1.92-.99 3.4-1.5 5.1l-.22.5h-19.7c-.34-.87-.72-1.83-1.03-2.73-.68-2-1.23-4.04-1.66-6.11-.48-2.29-.99-4.57-1.43-6.88-.26-1.14-.43-2.3-.5-3.47-.2-1.6-.15-3.21.16-4.8 0-.16.1-.32.16-.5h1.93c.22-.03.43.04.6.18a7.83 7.83 0 0 1 1.52 2c.4.96.9 1.82 1.32 2.84.23.53.42 1.1.7 1.67v-4.17c0-.33-.1-.7.3-.9.07-.09.1-.2.1-.3 0-1.23 0-2.46.1-3.67.09-2.23.31-4.46.68-6.67.29-1.65.63-3.3.96-4.98h4.53c.14 1.22.14 2.45 0 3.66-.4 2.63-.77 5.29-1.2 7.92-.35 2.05-.83 4.1-1.23 6.15a3.4 3.4 0 0 0 0 .86c.12 1.45.05 2.92-.24 4.35v.82h1.92c.13-.88.26-1.83.35-2.69.09-.86.25-2.26.3-3.42.12-1.83.56-3.65.83-5.48.24-1.41.55-2.82.77-4.23.21-1.4.29-2.4.42-3.66.08-.6.14-1.21.16-1.82-.04-.72-.1-1.5-.14-2.47z"/><path id="y8l5t" d="M224.84 463.75l25.62.2 6.9 91.07-20.47 4.19"/><path id="y8l5u" d="M209.6 463.75l-25.63.2-6.9 90.96 20.48 4.17"/></defs><g><g transform="translate(-75 -196)"><g><use fill="#d0af21" xlink:href="#y8l5a"/></g><g><g><g><use fill="#fff" xlink:href="#y8l5b"/></g><g><use fill="#fff" xlink:href="#y8l5c"/></g><g><use fill="#fff" xlink:href="#y8l5d"/></g><g><use fill="#fff" xlink:href="#y8l5e"/></g></g></g><g><use fill="#00303c" xlink:href="#y8l5f"/></g><g><use fill="#d0af21" xlink:href="#y8l5g"/></g><g><use fill="#f88d2b" xlink:href="#y8l5h"/></g><g><use fill="#d0af21" xlink:href="#y8l5i"/></g><g><use fill="#00303c" xlink:href="#y8l5j"/></g><g><use fill="#c49a6c" xlink:href="#y8l5k"/></g><g><use fill="#00303c" xlink:href="#y8l5l"/></g><g><use fill="#00303c" xlink:href="#y8l5m"/></g><g><use fill="#00303c" xlink:href="#y8l5n"/></g><g><use fill="#fff" xlink:href="#y8l5o"/></g><g><use fill="#00303c" xlink:href="#y8l5p"/></g><g><use fill="#fff" xlink:href="#y8l5q"/></g><g><use fill="#00303c" xlink:href="#y8l5r"/></g><g><use fill="#c49a6c" xlink:href="#y8l5s"/></g><g><use fill="#c49a6c" xlink:href="#y8l5t"/></g><g><use fill="#c49a6c" xlink:href="#y8l5u"/></g></g></g></svg>