<svg xmlns="http://www.w3.org/2000/svg" xmlns:xlink="http://www.w3.org/1999/xlink" width="800" height="4114" viewBox="0 0 63 324"><defs><path id="4uvha" d="M1075.29 387.54h43.1l-9.03 144.76-30.41 1.3"/><path id="4uvhb" d="M1102.34 421.51v.55c.23 1.83.5 3.65.7 5.48.24 1.98.43 3.98.64 5.96 0 .08.05.2 0 .24-.4.45-.2 1.03-.27 1.52-.2 1.3-.3 2.63-.5 3.94-.12.76-.33 1.5-.51 2.34-.51 0-.96 0-1.5-.02l-.56-15.07h-.18c-.18 1.63-.2 3.28-.3 4.92-.12 1.64-.18 3.3-.27 4.95l-.3 5.14h-1.85c.53-5.07.79-10.17.78-15.27-.3 0-.55-.03-.88-.05l-1.2 15.26-2.46-.06c-.09-1.78.31-3.45.37-5.14.07-1.69.2-3.35.28-5.03l.29-5.2-1.61-.11-.16 2.64c-.13 1.05-.17 2.11-.14 3.17.08 1.5 0 3-.24 4.49-.19 1.69-.51 3.36-.78 5.1l-2.32-.1c-.35-.8-.5-1.67-.44-2.53-.08-2.42 0-4.84.22-7.25.28-2.77.58-5.55.89-8.32.19-1.69.38-3.38.64-5.06.16-1.02.45-2.01.7-3.08l13.12.51c.23.93.48 1.83.7 2.73.82 3.23 1.63 6.47 2.42 9.7.22.86.24 1.75.05 2.62-.16.68-1.01 1.38-1.62 1.19-.4-.19-.76-.49-1.01-.86a8.05 8.05 0 0 1-1.52-3.81c-.25-1.58-.4-3.17-.6-4.75 0-.38.04-.81-.58-.74z"/><path id="4uvhc" d="M1083.61 531.6v25.53h13.37c1.35-4.94.9-9.94 1.34-15 .28.32.58.63.84.96 1.45 1.83 3.38 3.2 5.23 4.63 4.71 3.68 10.04 6.41 15.58 8.83 1.33.57 2.9.67 4.3 1.12 1.28.36 2.64.35 3.91-.03a4.58 4.58 0 0 0 2.85-1.75c.81-1 1.38-2.16 1.65-3.42a3.22 3.22 0 0 0-1.55-3.45 247.96 247.96 0 0 0-15.67-10.04 127.9 127.9 0 0 1-11.4-7.15 2.53 2.53 0 0 0-1.6-.52c-6.07.1-12.14.18-18.21.26-.15-.02-.35 0-.64.03z"/><path id="4uvhd" d="M1123.68 258.98h-10.88l-.46-10.61.17-.04c.18.14.36.28.51.44 2.68 2.43 5.34 4.88 7.98 7.34.87.82 1.63 1.7 2.44 2.55.07.07.15.13.24.19v.13z"/><path id="4uvhe" d="M1084.36 265.1c.84-.52 1.57-.94 2.27-1.39.33-.19.65-.4.95-.64.9-.66 1.76-1.37 2.58-2.13.6-.65 1.16-1.34 1.65-2.08a9.78 9.78 0 0 0 1.74-5.5c.13-2.43-.35-4.86-1.39-7.06-.47-.88-1-1.74-1.56-2.56.15.02.3.06.45.12 1 .37 2.06.57 3.13.57 1.07.12 2.15.07 3.2-.15 1.57-.4 3.17-.57 4.7-1.22.46-.19.95-.32 1.45-.39.33-.05.65-.18.92-.4.49-.36 1-.7 1.52-1.03a7.97 7.97 0 0 0 3.38-4.2l.12-.12c.15.18.32.34.46.52a17.41 17.41 0 0 1 3.19 7.37c.42 2.14.66 4.3.72 6.49a37 37 0 0 1-2.12 12.76 37 37 0 0 1-2.23 5.2c-.52.96-1.12 1.88-1.65 2.82-.2.39-.62.61-1.05.58h-17.87a.9.9 0 0 1-.98-.52c-1.17-2.35-2.36-4.67-3.58-7.04z"/><path id="4uvhf" d="M1086.63 243.47c.21-.35.45-.7.72-1.01 1.05-1.02 2.06-2.06 3.15-3.04.97-.84 2.04-1.56 3.18-2.13.8-.47 1.62-.89 2.48-1.24a23.25 23.25 0 0 1 5.7-1.34c2.28-.24 4.6.15 6.7 1.13.6.27 1.15.61 1.75.9.2.05.38.2.46.4.08.2.07.42-.04.6-.38.9-.94 1.7-1.66 2.36a13.98 13.98 0 0 1-3.96 2.61c-2.1.7-4.2 1.46-6.33 2.03-2.3.66-4.73.73-7.06.19-1.47-.3-2.92-.69-4.33-1.16l-.76-.3z"/><path id="4uvhg" d="M1086.86 241.49c1.05.56 2.04 1.1 3.06 1.6a8.42 8.42 0 0 1 2.93 2.71 11.2 11.2 0 0 1 1.99 5.45c.27 1.9.03 3.84-.7 5.6a11.75 11.75 0 0 1-3.97 4.87 63.6 63.6 0 0 1-3.42 2.38c-.64.36-1.3.69-1.99.97-.24-.53-.45-1.07-.63-1.62a41.92 41.92 0 0 1-.88-3.83c-.15-.89-.25-1.78-.3-2.68-.09-.93-.12-1.86-.09-2.78.1-1.64 0-3.28.42-4.9a21.57 21.57 0 0 1 3.24-7.34c.1-.15.22-.3.34-.43z"/><path id="4uvhh" d="M1101.75 248.7c.2-.17.4-.33.63-.48a35.04 35.04 0 0 1 3.16-1.54 8.38 8.38 0 0 1 3.73-.61 5.6 5.6 0 0 1 1.94.54c.7.4 1.12 1.11 1.12 1.89.07 1.13-.69 1.51-1.55 1.74a15.1 15.1 0 0 1-8.39-.51.78.78 0 0 1-.4-.36c-.1-.2-.18-.43-.24-.66z"/><path id="4uvhi" d="M1108.28 246.07h-.42c-.1 0-.23-.09-.32.1 0 .03-.06 0-.1 0a.88.88 0 0 0-.74.55 1.7 1.7 0 0 0-.34.75c0 .21-.06.4-.06.62a5.98 5.98 0 0 0 .3 2.19c.1.25.22.49.35.72.13.19.34.3.55.3.34.07.68.09 1.01.07.33.04.65-.08.88-.31.06-.07.15-.1.22-.16.33-.36.5-.86.45-1.36v-.83c.01-.6-.1-1.2-.3-1.76a1.5 1.5 0 0 0-.3-.44.98.98 0 0 0-.78-.41c-.14 0-.27-.01-.4-.03zm-4.26 15.2h8.32l-.1 1.22h-5.93c.12.23.16.41.27.48.96.62 1.77 1.5 2.84 1.92.53.19 1.07.34 1.61.46l-.53 1.24a4.93 4.93 0 0 1-3.47-1.12c-.24-.23-.5-.43-.78-.6a4.9 4.9 0 0 1-2.01-2.17 4.97 4.97 0 0 1-.22-1.44z"/><path id="4uvhj" d="M1106.65 272.67l-1.12 115.62h14.2l4.7-115.53"/><path id="4uvhk" d="M1073.85 387.53l13.9-.19.4-115.43-18.15.34"/><path id="4uvhl" d="M1082.1 533.59h28.73"/><path id="4uvhm" d="M1087.39 272.67h21.92l-1.2 143.77h-20.17"/><path id="4uvhn" d="M1082.85 272.67h30.24l-1.66 143.77h-27.83"/><path id="4uvho" d="M1102.35 421.5v.54c.24 1.83.5 3.65.7 5.48.24 1.99.43 3.99.64 5.98 0 .07.05.2 0 .23-.39.46-.2 1.03-.27 1.52-.2 1.31-.3 2.64-.5 3.94-.12.77-.32 1.52-.51 2.35-.51 0-.96 0-1.52-.02-.2-5.07-.38-10.07-.56-15.08h-.14c-.18 1.63-.2 3.28-.3 4.92-.11 1.64-.18 3.3-.27 4.95l-.3 5.15h-1.85c.52-5.08.78-10.18.77-15.28-.3 0-.55-.03-.88-.06l-1.2 15.28-2.45-.06c-.1-1.78.3-3.45.37-5.14.06-1.7.18-3.36.28-5.04l.28-5.21-1.6-.1-.17 2.64a20.77 20.77 0 0 0-.13 3.17c.07 1.5-.01 3-.25 4.5-.18 1.69-.5 3.36-.78 5.1l-2.33-.07c-.36-.8-.51-1.67-.45-2.54-.07-2.42 0-4.84.22-7.25.28-2.77.58-5.56.89-8.33.19-1.69.38-3.38.64-5.06.16-1.03.45-2.02.7-3.09l13.13.51c.24.94.48 1.83.7 2.74l2.42 9.7c.21.85.23 1.75.04 2.61-.16.69-1.02 1.4-1.62 1.2-.4-.2-.76-.5-1.01-.86a8.1 8.1 0 0 1-1.53-3.82c-.24-1.58-.4-3.17-.59-4.75 0-.4.05-.83-.57-.76z"/></defs><g><g transform="matrix(-1 0 0 1 1133 -234)"><g><use fill="#d0021b" xlink:href="#4uvha"/></g><g><use fill="#fff" xlink:href="#4uvhb"/></g><g><use fill="#00303c" xlink:href="#4uvhc"/></g><g><use fill="#efb8a9" xlink:href="#4uvhd"/></g><g><use fill="#efb8a9" xlink:href="#4uvhe"/></g><g><use fill="#00303c" xlink:href="#4uvhf"/></g><g><use fill="#00303c" xlink:href="#4uvhg"/></g><g><use fill="#fff" xlink:href="#4uvhh"/></g><g><use fill="#00303c" xlink:href="#4uvhi"/></g><g><use fill="#0a6ec7" xlink:href="#4uvhj"/></g><g><use fill="#0a6ec7" xlink:href="#4uvhk"/></g><g><use fill="#f88d2b" xlink:href="#4uvhl"/></g><g><use fill="#fff" xlink:href="#4uvhm"/></g><g><use fill="#141d6f" xlink:href="#4uvhn"/></g><g><use fill="#efb8a9" xlink:href="#4uvho"/></g></g></g></svg>