<svg xmlns="http://www.w3.org/2000/svg" xmlns:xlink="http://www.w3.org/1999/xlink" width="63" height="75" viewBox="0 0 63 75"><defs><path id="2e2da" d="M308.44 445.43l17.73-30.57 17.72 30.57z"/><path id="2e2db" d="M341.48 425.27v-20.19l17.45 10.15z"/><path id="2e2dc" d="M304.67 469.53h5.5c-.29-1.32-1.3-2.06-2.71-2.06-1.36 0-2.42.86-2.79 2.06zm-1.99 1.02c0-2.69 2.07-4.8 4.76-4.8 2.72 0 4.71 1.96 4.71 4.66v.77h-7.58c.25 1.42 1.36 2.35 2.94 2.35 1.25 0 2.2-.65 2.68-1.65l1.61.9a4.63 4.63 0 0 1-4.29 2.5 4.61 4.61 0 0 1-4.83-4.73z"/><path id="2e2dd" d="M316 470.44l-3.37-4.51h2.38l2.2 3.02 2.22-3.02h2.32l-3.33 4.5 3.53 4.66h-2.38l-2.39-3.15-2.3 3.15h-2.39z"/><path id="2e2de" d="M330.78 470.5a2.9 2.9 0 1 0-5.79 0 2.89 2.89 0 1 0 5.79 0zm-5.7 3.45v5.35h-1.95v-13.37h1.95v1.29a3.87 3.87 0 0 1 3.07-1.47c2.4 0 4.57 1.83 4.57 4.76a4.6 4.6 0 0 1-4.55 4.76 3.92 3.92 0 0 1-3.1-1.32z"/><path id="2e2df" d="M334.25 461.73h1.96v13.37h-1.96z"/><path id="2e2dg" d="M345.36 470.52a2.87 2.87 0 0 0-2.82-2.94 2.85 2.85 0 0 0-2.8 2.94 2.85 2.85 0 0 0 2.8 2.93 2.86 2.86 0 0 0 2.82-2.93zm-7.57-.01a4.7 4.7 0 0 1 4.74-4.76 4.72 4.72 0 0 1 4.76 4.76 4.74 4.74 0 1 1-9.5 0z"/><path id="2e2dh" d="M348.86 465.95h1.96v1.44c.5-.94 1.39-1.44 2.68-1.44h.88v1.86h-1.19c-1.67 0-2.35.84-2.35 2.75v4.53h-1.98v-9.14z"/><path id="2e2di" d="M357.18 469.53h5.5c-.29-1.32-1.3-2.06-2.71-2.06-1.36 0-2.43.86-2.79 2.06zm-1.99 1.02c0-2.69 2.07-4.8 4.76-4.8 2.72 0 4.71 1.96 4.71 4.66v.77h-7.6c.26 1.42 1.37 2.35 2.95 2.35 1.25 0 2.2-.65 2.68-1.65l1.6.9a4.63 4.63 0 0 1-4.28 2.5 4.61 4.61 0 0 1-4.82-4.73z"/></defs><g><g transform="translate(-302 -405)"><g><g><g><use fill="#30aabc" xlink:href="#2e2da"/></g><g><use fill="#03363d" xlink:href="#2e2db"/></g></g><g><g><use fill="#03363d" xlink:href="#2e2dc"/></g><g><use fill="#03363d" xlink:href="#2e2dd"/></g><g><use fill="#03363d" xlink:href="#2e2de"/></g><g><use fill="#03363d" xlink:href="#2e2df"/></g><g><use fill="#03363d" xlink:href="#2e2dg"/></g><g><use fill="#03363d" xlink:href="#2e2dh"/></g><g><use fill="#03363d" xlink:href="#2e2di"/></g></g></g></g></g></svg>