<svg xmlns="http://www.w3.org/2000/svg" xmlns:xlink="http://www.w3.org/1999/xlink" width="68" height="71" viewBox="0 0 68 71"><defs><path id="mmzma" d="M162.15 547.45l-15.11-5.1 5.11-15.13 15.11 5.1z"/><path id="mmzmb" d="M131.85 552.52v-15.15H116.7v30.3h30.34v-15.15z"/><path id="mmzmc" d="M107.98 592.65c0-2.69 2.1-4.76 4.8-4.76a4.61 4.61 0 0 1 4.34 2.8l-1.77.76a2.73 2.73 0 0 0-2.58-1.73 2.85 2.85 0 0 0-2.86 2.93 2.88 2.88 0 0 0 2.9 2.93c1.24 0 2.15-.77 2.57-1.8l1.78.76a4.62 4.62 0 0 1-4.4 2.87 4.72 4.72 0 0 1-4.78-4.76z"/><path id="mmzmd" d="M125.78 592.66a2.87 2.87 0 0 0-2.81-2.94 2.86 2.86 0 0 0-2.8 2.94 2.85 2.85 0 0 0 2.8 2.93 2.86 2.86 0 0 0 2.81-2.93zm-7.55-.01a4.7 4.7 0 0 1 4.74-4.76 4.73 4.73 0 0 1 4.76 4.76 4.74 4.74 0 0 1-4.76 4.76 4.7 4.7 0 0 1-4.74-4.76z"/><path id="mmzme" d="M129.28 588.07h1.95v1.2a3.43 3.43 0 0 1 2.81-1.38c2.32 0 3.73 1.5 3.73 3.99v5.35h-1.97v-5.18c0-1.5-.76-2.45-2.22-2.45-1.32 0-2.32 1-2.32 2.59v5.02h-1.97v-9.14z"/><path id="mmzmf" d="M139.63 588.07h1.95v1.2a3.43 3.43 0 0 1 2.81-1.38c2.32 0 3.73 1.5 3.73 3.99v5.35h-1.97v-5.18c0-1.5-.76-2.45-2.22-2.45-1.32 0-2.32 1-2.32 2.59v5.02h-1.97v-9.14z"/><path id="mmzmg" d="M151.64 591.67h5.5c-.3-1.32-1.3-2.06-2.72-2.06-1.36 0-2.42.84-2.78 2.06zm-1.98 1.02c0-2.69 2.07-4.8 4.76-4.8 2.72 0 4.71 1.96 4.71 4.66v.77h-7.6c.26 1.42 1.37 2.35 2.95 2.35 1.25 0 2.2-.65 2.68-1.65l1.6.9a4.63 4.63 0 0 1-4.28 2.5 4.61 4.61 0 0 1-4.82-4.73z"/><path id="mmzmh" d="M160.39 592.65c0-2.69 2.1-4.76 4.8-4.76a4.61 4.61 0 0 1 4.34 2.8l-1.77.76a2.73 2.73 0 0 0-2.58-1.73 2.85 2.85 0 0 0-2.86 2.93 2.88 2.88 0 0 0 2.9 2.93c1.24 0 2.15-.77 2.57-1.8l1.78.76a4.62 4.62 0 0 1-4.4 2.87 4.72 4.72 0 0 1-4.78-4.76z"/><path id="mmzmi" d="M170.45 588.06h1.56v-2.15l1.97-1.08v3.23h1.95v1.77h-1.95v3.64c0 1.65.25 1.9 1.95 1.9v1.85h-.3c-2.78 0-3.62-.88-3.62-3.74v-3.67h-1.55l-.01-1.75z"/></defs><g><g transform="translate(-108 -527)"><g><g><use fill="#03363d" xlink:href="#mmzma"/></g><g><use fill="#eb6751" xlink:href="#mmzmb"/></g></g><g><g><use fill="#03363d" xlink:href="#mmzmc"/></g><g><use fill="#03363d" xlink:href="#mmzmd"/></g><g><use fill="#03363d" xlink:href="#mmzme"/></g><g><use fill="#03363d" xlink:href="#mmzmf"/></g><g><use fill="#03363d" xlink:href="#mmzmg"/></g><g><use fill="#03363d" xlink:href="#mmzmh"/></g><g><use fill="#03363d" xlink:href="#mmzmi"/></g></g></g></g></svg>