<svg xmlns="http://www.w3.org/2000/svg" xmlns:xlink="http://www.w3.org/1999/xlink" width="65" height="75" viewBox="0 0 65 75"><defs><path id="4s3wa" d="M55.1 473.23l1.77-.96a2.67 2.67 0 0 0 2.42 1.32c1.13 0 1.72-.56 1.72-1.19 0-.76-1.09-.92-2.28-1.16-1.56-.3-3.21-.83-3.21-2.72 0-1.44 1.39-2.78 3.57-2.77 1.78 0 2.97.66 3.75 1.78l-1.66.9a2.35 2.35 0 0 0-2.09-1.06c-1.08 0-1.58.5-1.58 1.1 0 .65.78.8 2.17 1.12 1.54.33 3.28.84 3.28 2.77 0 1.37-1.23 2.94-3.78 2.93-1.96 0-3.3-.72-4.08-2.06z"/><path id="4s3wb" d="M64.33 471.28v-5.32h2v5.17c0 1.5.73 2.45 2.22 2.45 1.3 0 2.31-1 2.31-2.58v-5.03h1.96v9.16h-1.95v-1.19a3.42 3.42 0 0 1-2.78 1.37c-2.41-.03-3.76-1.52-3.76-4.03z"/><path id="4s3wc" d="M82.42 470.52a2.9 2.9 0 0 0-2.88-2.97 2.89 2.89 0 0 0-2.89 2.97 2.89 2.89 0 0 0 2.89 2.98 2.9 2.9 0 0 0 2.88-2.98zm-5.67 3.45v5.35H74.8v-13.37h1.95v1.29a3.88 3.88 0 0 1 3.07-1.47c2.4 0 4.58 1.83 4.58 4.76a4.6 4.6 0 0 1-4.55 4.76c-1.3 0-2.44-.48-3.1-1.32z"/><path id="4s3wd" d="M93.52 470.52a2.9 2.9 0 0 0-2.88-2.97 2.9 2.9 0 0 0-2.89 2.97 2.89 2.89 0 1 0 5.77 0zm-5.67 3.45v5.35H85.9v-13.37h1.95v1.29a3.88 3.88 0 0 1 3.07-1.47c2.4 0 4.58 1.83 4.58 4.76a4.6 4.6 0 0 1-4.55 4.76c-1.3 0-2.45-.48-3.1-1.32z"/><path id="4s3we" d="M104.33 470.54a2.87 2.87 0 0 0-2.82-2.94 2.85 2.85 0 0 0-2.8 2.94 2.85 2.85 0 0 0 2.8 2.93 2.87 2.87 0 0 0 2.82-2.93zm-7.57-.01a4.7 4.7 0 0 1 4.74-4.76 4.73 4.73 0 0 1 4.76 4.76 4.74 4.74 0 1 1-9.5 0z"/><path id="4s3wf" d="M107.83 465.95h1.96v1.44c.5-.94 1.39-1.44 2.68-1.44h.88v1.86h-1.18c-1.66 0-2.35.84-2.35 2.75v4.53h-1.98l-.01-9.14z"/><path id="4s3wg" d="M114.56 465.94h1.56v-2.15l1.97-1.08v3.23h1.95v1.77h-1.95v3.64c0 1.65.25 1.9 1.95 1.9v1.85h-.3c-2.78 0-3.62-.88-3.62-3.74v-3.65h-1.56v-1.77z"/><path id="4s3wh" d="M90.1 410.16l-17.73-5.03-4.66 16.5-5.37 18.92 17.73 5.03 5.01-17.73v.02z"/><path id="4s3wi" d="M95.06 445.58l-5-17.72 17.73-5.01 5 17.72z"/></defs><g><g transform="translate(-55 -405)"><g><g><g><use fill="#03363d" xlink:href="#4s3wa"/></g><g><use fill="#03363d" xlink:href="#4s3wb"/></g><g><use fill="#03363d" xlink:href="#4s3wc"/></g><g><use fill="#03363d" xlink:href="#4s3wd"/></g><g><use fill="#03363d" xlink:href="#4s3we"/></g><g><use fill="#03363d" xlink:href="#4s3wf"/></g><g><use fill="#03363d" xlink:href="#4s3wg"/></g></g><g><g><use fill="#78a440" xlink:href="#4s3wh"/></g><g><use fill="#03363d" xlink:href="#4s3wi"/></g></g></g></g></g></svg>