<svg xmlns="http://www.w3.org/2000/svg" xmlns:xlink="http://www.w3.org/1999/xlink" width="51" height="71" viewBox="0 0 51 71"><defs><path id="uj3ua" d="M442.88 405.18c-6.97 0-12.64 6.44-12.65 12.63h25.3c0-6.19-5.65-12.63-12.65-12.63z"/><path id="uj3ub" d="M459.4 445.64c11.85 0 21.46-8.35 21.48-21.44H437.9c.01 13.1 9.63 21.44 21.5 21.44z"/><path id="uj3uc" d="M440.36 466h1.56v-2.16l1.97-1.08v3.23h1.95v1.77h-1.95v3.64c0 1.65.25 1.9 1.95 1.9v1.85h-.3c-2.78 0-3.62-.88-3.62-3.74v-3.65h-1.56v-1.77z"/><path id="uj3ud" d="M454.53 470.56a2.88 2.88 0 1 0-5.78 0 2.89 2.89 0 1 0 5.78 0zm-7.74.01a4.57 4.57 0 0 1 4.59-4.76c1.2 0 2.37.53 3.04 1.37V466h1.97v9.16h-1.97v-1.26c-.7.9-1.85 1.44-3.07 1.44a4.6 4.6 0 0 1-4.56-4.76z"/><path id="uj3ue" d="M458.27 461.79h1.96v13.37h-1.96z"/><path id="uj3uf" d="M465.7 471.1l-1.53 1.67v2.38h-1.95v-13.37h1.95v8.75l4.12-4.54h2.37l-3.58 3.92 3.66 5.24h-2.2z"/></defs><g><g transform="translate(-430 -405)"><g><g><g><use fill="#03363d" xlink:href="#uj3ua"/></g><g><use fill="#f0ca28" xlink:href="#uj3ub"/></g></g><g><g><use fill="#03363d" xlink:href="#uj3uc"/></g><g><use fill="#03363d" xlink:href="#uj3ud"/></g><g><use fill="#03363d" xlink:href="#uj3ue"/></g><g><use fill="#03363d" xlink:href="#uj3uf"/></g></g></g></g></g></svg>