<svg xmlns="http://www.w3.org/2000/svg" xmlns:xlink="http://www.w3.org/1999/xlink" width="52" height="71" viewBox="0 0 52 71"><defs><path id="1gzua" d="M204.36 410.12s.07.01.11.04a25.05 25.05 0 0 1 .05 35.4l-17.8-17.78z"/><path id="1gzub" d="M224.6 430.37l-.04-.09a17.81 17.81 0 0 1 .01-25.2l12.67 12.66z"/><path id="1gzuc" d="M193.38 470.5c0-2.69 2.1-4.76 4.8-4.76a4.61 4.61 0 0 1 4.34 2.8l-1.77.76a2.73 2.73 0 0 0-2.58-1.73 2.85 2.85 0 0 0-2.86 2.93 2.88 2.88 0 0 0 2.9 2.93c1.24 0 2.15-.77 2.57-1.8l1.78.76a4.62 4.62 0 0 1-4.4 2.87 4.73 4.73 0 0 1-4.78-4.76z"/><path id="1gzud" d="M204 461.71h1.94v5.36a3.57 3.57 0 0 1 2.81-1.34c2.32 0 3.73 1.5 3.73 3.99v5.35h-2v-5.17c0-1.51-.73-2.48-2.22-2.48-1.3 0-2.3 1-2.3 2.6v5.02h-1.97V461.7z"/><path id="1gzue" d="M221.77 470.47a2.89 2.89 0 1 0-5.78 0 2.9 2.9 0 0 0 2.88 2.98 2.9 2.9 0 0 0 2.9-2.98zm-7.75.03a4.56 4.56 0 0 1 4.58-4.76c1.2 0 2.37.53 3.04 1.37v-1.19h1.97v9.16h-1.97v-1.26a3.9 3.9 0 0 1-3.07 1.44 4.63 4.63 0 0 1-4.55-4.76z"/><path id="1gzuf" d="M225.09 465.92h1.56v-2.15l1.97-1.08v3.23h1.95v1.77h-1.95v3.64c0 1.65.25 1.9 1.95 1.9v1.85h-.3c-2.78 0-3.62-.88-3.62-3.74v-3.65h-1.56v-1.77z"/></defs><g><g transform="translate(-186 -405)"><g><g><g><use fill="#f89b40" xlink:href="#1gzua"/></g><g><use fill="#03363d" xlink:href="#1gzub"/></g></g><g><g><use fill="#03363d" xlink:href="#1gzuc"/></g><g><use fill="#03363d" xlink:href="#1gzud"/></g><g><use fill="#03363d" xlink:href="#1gzue"/></g><g><use fill="#03363d" xlink:href="#1gzuf"/></g></g></g></g></g></svg>