<svg xmlns="http://www.w3.org/2000/svg" xmlns:xlink="http://www.w3.org/1999/xlink" width="51" height="75" viewBox="0 0 51 75"><defs><path id="zenza" d="M240.38 568l25.27-25.24L290.93 568z"/><path id="zenzb" d="M254.35 538.98l11.34-11.33 11.33 11.33z"/><path id="zenzc" d="M250.75 592.64a2.87 2.87 0 1 0-5.74 0 2.9 2.9 0 0 0 2.88 2.97 2.88 2.88 0 0 0 2.86-2.97zm-7.68.03a4.54 4.54 0 0 1 4.55-4.73c1.2 0 2.33.55 3.03 1.41v-1.23h1.95V597c0 2.67-1.68 4.65-4.6 4.65-2.28 0-3.82-1.1-4.51-2.56l1.8-.86c.46 1 1.34 1.64 2.73 1.64 1.65 0 2.66-1.22 2.66-2.79v-1.15a3.88 3.88 0 0 1-3.06 1.47 4.6 4.6 0 0 1-4.55-4.73z"/><path id="zenzd" d="M254.42 593.41v-5.29h1.99v5.14c0 1.5.73 2.43 2.2 2.43 1.29 0 2.3-.98 2.3-2.56v-5.01h1.95v9.1h-1.94v-1.18a3.36 3.36 0 0 1-2.77 1.36c-2.4 0-3.73-1.5-3.73-3.99z"/><path id="zenze" d="M264.72 588.13h1.96v9.1h-1.96zm1-4.04c.77 0 1.31.54 1.31 1.31s-.54 1.31-1.31 1.31c-.79 0-1.32-.54-1.32-1.3 0-.78.55-1.32 1.32-1.32z"/><path id="zenzf" d="M275.76 592.65a2.88 2.88 0 0 0-2.86-2.96 2.87 2.87 0 0 0-2.87 2.96 2.9 2.9 0 0 0 2.87 2.98 2.88 2.88 0 0 0 2.86-2.98zm-7.68.03a4.54 4.54 0 0 1 4.55-4.74c1.2 0 2.36.54 3.03 1.36v-5.36h1.93v13.29h-1.93v-1.26a3.85 3.85 0 0 1-3.04 1.44 4.59 4.59 0 0 1-4.54-4.73z"/><path id="zenzg" d="M281 591.68h5.46c-.3-1.31-1.3-2.04-2.7-2.04a2.88 2.88 0 0 0-2.77 2.04zm-1.97 1.02a4.7 4.7 0 0 1 4.74-4.77c2.69 0 4.68 1.95 4.68 4.65v.77h-7.54c.25 1.4 1.34 2.32 2.93 2.32 1.23 0 2.18-.66 2.66-1.64l1.6.9a4.6 4.6 0 0 1-4.26 2.48 4.6 4.6 0 0 1-4.81-4.7z"/></defs><g><g transform="translate(-240 -527)"><g><g><use fill="#eb4a62" xlink:href="#zenza"/></g><g><use fill="#03363d" xlink:href="#zenzb"/></g></g><g><g><use fill="#03363d" xlink:href="#zenzc"/></g><g><use fill="#03363d" xlink:href="#zenzd"/></g><g><use fill="#03363d" xlink:href="#zenze"/></g><g><use fill="#03363d" xlink:href="#zenzf"/></g><g><use fill="#03363d" xlink:href="#zenzg"/></g></g></g></g></svg>