<svg xmlns="http://www.w3.org/2000/svg" xmlns:xlink="http://www.w3.org/1999/xlink" width="76" height="75" viewBox="0 0 76 75"><defs><path id="vq9ea" d="M385.01 552.85a15.13 15.13 0 1 1 30.26.02 15.13 15.13 0 0 1-30.26-.02z"/><path id="vq9eb" d="M364.68 536.42a8.85 8.85 0 1 1 17.7 0 8.85 8.85 0 0 1-17.7 0z"/><path id="vq9ec" d="M351.98 588.38h1.95v1.09a3.22 3.22 0 0 1 2.69-1.29c1.47 0 2.5.63 3.03 1.65.63-1 1.73-1.65 3.1-1.65 2.49 0 3.79 1.5 3.79 3.85v5.5h-1.99v-5.36c0-1.37-.76-2.27-2.13-2.27-1.22 0-2.17.84-2.17 2.48v5.17h-1.98v-5.46c0-1.35-.75-2.17-2.07-2.17-1.3 0-2.23.85-2.23 2.54v5.09h-1.96l-.03-9.17z"/><path id="vq9ed" d="M370.06 591.96h5.5c-.29-1.3-1.3-2.05-2.71-2.05-1.36 0-2.43.85-2.79 2.05zm-1.99 1.03c0-2.69 2.07-4.8 4.76-4.8 2.72 0 4.71 1.96 4.71 4.66v.77h-7.6c.26 1.42 1.37 2.35 2.95 2.35 1.25 0 2.2-.65 2.68-1.65l1.6.9a4.63 4.63 0 0 1-4.28 2.5 4.6 4.6 0 0 1-4.82-4.73z"/><path id="vq9ee" d="M378.44 595.66l1.77-.96a2.67 2.67 0 0 0 2.42 1.32c1.14 0 1.72-.56 1.72-1.19 0-.76-1.09-.92-2.27-1.16-1.57-.3-3.2-.83-3.2-2.72 0-1.44 1.38-2.78 3.57-2.77 1.78 0 2.97.66 3.74 1.78l-1.65.9a2.35 2.35 0 0 0-2.1-1.06c-1.07 0-1.58.5-1.58 1.1 0 .65.79.8 2.18 1.12 1.54.33 3.28.84 3.28 2.77 0 1.37-1.24 2.94-3.79 2.93-1.99 0-3.3-.7-4.09-2.06z"/><path id="vq9ef" d="M387.17 595.66l1.77-.96a2.67 2.67 0 0 0 2.42 1.32c1.14 0 1.72-.56 1.72-1.19 0-.76-1.09-.92-2.27-1.16-1.55-.3-3.2-.83-3.2-2.72 0-1.44 1.38-2.78 3.57-2.77 1.78 0 2.97.66 3.74 1.78l-1.65.9a2.35 2.35 0 0 0-2.1-1.06c-1.07 0-1.59.5-1.59 1.1 0 .65.78.8 2.17 1.12 1.54.33 3.28.84 3.28 2.77 0 1.37-1.22 2.94-3.78 2.93-1.96 0-3.28-.7-4.08-2.06z"/><path id="vq9eg" d="M403.96 592.94a2.88 2.88 0 0 0-2.9-2.97c-1.64 0-2.89 1.3-2.89 2.97a2.9 2.9 0 0 0 2.9 2.98 2.9 2.9 0 0 0 2.89-2.98zm-7.75.01a4.56 4.56 0 0 1 4.58-4.76c1.2 0 2.37.53 3.04 1.37v-1.19h1.96v9.16h-1.96v-1.26a3.9 3.9 0 0 1-3.07 1.44 4.6 4.6 0 0 1-4.55-4.76z"/><path id="vq9eh" d="M415.1 592.94a2.89 2.89 0 1 0-5.78 0 2.89 2.89 0 1 0 5.78 0zm-7.75.01a4.56 4.56 0 0 1 4.58-4.76 3.9 3.9 0 0 1 3.04 1.43v-1.25h1.96v8.93c0 2.7-1.68 4.67-4.6 4.67-2.3 0-3.86-1.1-4.55-2.58l1.81-.85c.45 1 1.35 1.65 2.73 1.65 1.67 0 2.68-1.23 2.68-2.8v-1.15a3.89 3.89 0 0 1-3.08 1.48 4.62 4.62 0 0 1-4.57-4.77z"/><path id="vq9ei" d="M420.5 591.96h5.5c-.3-1.3-1.3-2.05-2.72-2.05-1.36 0-2.42.85-2.78 2.05zm-1.98 1.03c0-2.69 2.07-4.8 4.76-4.8 2.72 0 4.71 1.96 4.71 4.66v.77h-7.58c.25 1.42 1.36 2.35 2.94 2.35 1.25 0 2.2-.65 2.68-1.65l1.61.9a4.63 4.63 0 0 1-4.29 2.5 4.6 4.6 0 0 1-4.83-4.73z"/></defs><g><g transform="translate(-352 -527)"><g><g><use fill="#37b8af" xlink:href="#vq9ea"/></g><g><use fill="#03363d" xlink:href="#vq9eb"/></g></g><g><g><use fill="#03363d" xlink:href="#vq9ec"/></g><g><use fill="#03363d" xlink:href="#vq9ed"/></g><g><use fill="#03363d" xlink:href="#vq9ee"/></g><g><use fill="#03363d" xlink:href="#vq9ef"/></g><g><use fill="#03363d" xlink:href="#vq9eg"/></g><g><use fill="#03363d" xlink:href="#vq9eh"/></g><g><use fill="#03363d" xlink:href="#vq9ei"/></g></g></g></g></svg>