<svg xmlns="http://www.w3.org/2000/svg" xmlns:xlink="http://www.w3.org/1999/xlink" width="101" height="20" viewBox="0 0 101 20"><defs><path id="da0ka" d="M125.74 61.45a3.27 3.27 0 0 0-3.44-3.09 3.51 3.51 0 0 0-3.7 3.08zm-3.1 5.3a5 5 0 0 0 3.58-1.4l1.78 1.92a7 7 0 0 1-5.35 2.12c-4.35 0-7.16-2.9-7.16-6.82a6.67 6.67 0 0 1 6.77-6.82c4.32 0 6.77 3.3 6.55 7.88h-10.19a3.68 3.68 0 0 0 4.01 3.11z"/><path id="da0kb" d="M55 66.6l7.86-8h-7.68v-2.53H66.5v2.56l-7.86 8h8v2.52H55z"/><path id="da0kc" d="M79.11 61.44a3.27 3.27 0 0 0-3.44-3.07A3.5 3.5 0 0 0 72 61.43zm-3.1 5.3a5 5 0 0 0 3.58-1.4l1.78 1.93a7 7 0 0 1-5.35 2.12c-4.35 0-7.16-2.9-7.16-6.82a6.67 6.67 0 0 1 6.77-6.82c4.32 0 6.77 3.3 6.55 7.88H72a3.68 3.68 0 0 0 4 3.11z"/><path id="da0kd" d="M110.23 62.57a4.14 4.14 0 1 0-8.28 0 4.14 4.14 0 0 0 8.28 0zm-11.05 0a6.53 6.53 0 0 1 6.55-6.81 5.64 5.64 0 0 1 4.35 2V50h2.78v19.12h-2.78v-1.8a5.57 5.57 0 0 1-4.37 2.07 6.59 6.59 0 0 1-6.53-6.82z"/><path id="da0ke" d="M130.55 66.35l2.51-1.35a3.73 3.73 0 0 0 3.35 1.91c1.57 0 2.38-.8 2.38-1.73 0-.92-1.52-1.28-3.17-1.62-2.23-.47-4.53-1.2-4.53-3.9 0-2.07 2-4 5.06-4a6 6 0 0 1 5.27 2.54l-2.33 1.36a3.38 3.38 0 0 0-2.93-1.49c-1.49 0-2.25.73-2.25 1.57 0 .84 1.2 1.2 3.09 1.62 2.15.47 4.58 1.18 4.58 3.9 0 1.81-1.57 4.24-5.29 4.22-2.34.17-4.56-1-5.74-3.03z"/><path id="da0kf" d="M148.81 63.31l-2.2 2.41v3.41h-2.78V50h2.78v12.52L152.5 56h3.38l-5.11 5.61 5.23 7.51h-3.13z"/><path id="da0kg" d="M90.92 55.76c-3.3 0-6.06 2.15-6.06 5.71v7.65h2.83v-7.3A3.1 3.1 0 0 1 91 58.39c2.1 0 3.14 1.29 3.14 3.43v7.3H97v-7.65c0-3.56-2.78-5.71-6.08-5.71z"/></defs><g><g transform="translate(-55 -50)"><g><use fill="#03363d" xlink:href="#da0ka"/></g><g><use fill="#03363d" xlink:href="#da0kb"/></g><g><use fill="#03363d" xlink:href="#da0kc"/></g><g><use fill="#03363d" xlink:href="#da0kd"/></g><g><use fill="#03363d" xlink:href="#da0ke"/></g><g><use fill="#03363d" xlink:href="#da0kf"/></g><g><use fill="#03363d" xlink:href="#da0kg"/></g></g></g></svg>